<svg aria-hidden="true" style="width:0;height:0;position:absolute;overflow:hidden" xmlns="http://www.w3.org/2000/svg"><defs><symbol id="icon-logo" viewBox="0 0 165 32"><path d="M135.242 10.376c-.898-.636-1.551-1.28-1.551-2.075h-4.996c0 1.431-.653 2.075-1.458 2.075h-1.334v14.528h25.942V10.376h-16.696zm-1.552 4.151h-4.675v-2.075h5.188v1.67zm8.781 8.08c-2.96 0-5.368-2.377-5.368-5.299s2.408-5.177 5.368-5.177c2.96 0 5.368 2.255 5.368 5.177s-2.408 5.299-5.368 5.299zm2.886-5.3c0 1.571-1.295 2.849-2.885 2.849s-2.886-1.278-2.886-2.849c0-1.571 1.294-2.849 2.886-2.849s2.885 1.278 2.885 2.849zM165.335 8.4l-6.459 16.465-4.956-1.987v-2.806l3.442 1.409 4.545-11.585-17.029-6.511-1.578 4.917h-2.842L143.364 0l21.972 8.401zM8.771 7.364c4.278-.098 8.294 3.382 8.746 7.648.541 3.75-1.665 7.644-5.122 9.166-2.094 1.04-4.459.72-6.711.773H3.483v7.05H-.003c.007-5.44-.014-10.88.011-16.32.114-4.052 3.432-7.682 7.439-8.221a8.897 8.897 0 0 1 1.324-.096zm0 14.101c2.514.063 4.872-1.899 5.248-4.39.501-2.507-1.098-5.202-3.543-5.954-2.362-.838-5.203.265-6.356 2.495-.895 1.524-.577 3.325-.636 5.004v2.844h5.288zM19.203 7.279h3.446v17.587h-3.446V7.279zM33.006 18.383h.126l4.899 6.532h4.271l-6.657-9.044 5.904-8.541h-4.271l-4.145 6.029h-.126L28.862 7.33h-4.271l5.904 8.541-6.657 9.044h4.271z"/><path d="M50.105 7.279c3.491-.069 6.839 2.218 8.13 5.446.674 1.499.665 3.161.643 4.77v7.371c-3.111-.011-6.222.021-9.332-.017-3.576-.175-6.846-2.782-7.869-6.203-.938-2.975-.159-6.429 2.05-8.65 1.65-1.707 3.995-2.739 6.378-2.717zm5.288 14.102c-.015-1.956.031-3.913-.026-5.867-.206-2.62-2.633-4.815-5.263-4.748-2.5-.06-4.857 1.879-5.248 4.354-.458 2.375.905 4.963 3.172 5.849 1.396.609 2.938.358 4.414.411h2.95zM69.369 7.364c4.128-.102 7.985 3.146 8.643 7.212.746 3.853-1.431 8.016-5.019 9.602-3.506 1.655-8.015.589-10.426-2.444-1.494-1.76-2.138-4.101-2.011-6.383V.314h3.486v7.05h5.328zm0 14.101c2.647.071 5.067-2.152 5.261-4.786.332-2.618-1.608-5.25-4.199-5.726-1.433-.196-2.888-.064-4.331-.103h-2.058c.022 1.987-.047 3.978.04 5.962.277 2.625 2.651 4.704 5.288 4.653zM88.26 7.279c3.491-.069 6.838 2.218 8.13 5.446.674 1.499.665 3.161.643 4.77v7.371c-3.111-.011-6.222.021-9.332-.017-3.576-.175-6.846-2.782-7.869-6.203-.939-2.975-.159-6.429 2.05-8.65 1.65-1.707 3.995-2.739 6.377-2.717zm5.288 14.102c-.015-1.956.031-3.913-.026-5.867-.206-2.62-2.633-4.815-5.263-4.748-2.5-.06-4.857 1.879-5.248 4.354-.458 2.375.905 4.963 3.172 5.849 1.396.609 2.938.358 4.414.411h2.95zM116.218 7.322c-.007 5.427.014 10.855-.011 16.281-.126 4.271-3.797 8.11-8.082 8.333-.814.043-1.63.017-2.445.024v-3.486c1.487-.007 3.079.144 4.396-.699 1.645-.923 2.691-2.785 2.654-4.667-3.09 2.491-7.88 2.362-10.884-.21-2.189-1.767-3.385-4.61-3.216-7.408V7.322h3.486c.016 3.105-.033 6.212.026 9.315.189 2.556 2.468 4.719 5.029 4.78 2.595.199 5.094-1.816 5.481-4.384.156-1.536.045-3.088.079-4.631V7.321h3.487z"/></symbol><symbol id="icon-circle-up" viewBox="0 0 32 32"><path d="M0 16c0 8.837 7.163 16 16 16s16-7.163 16-16S24.837 0 16 0 0 7.163 0 16zm29 0c0 7.18-5.82 13-13 13S3 23.18 3 16 8.82 3 16 3s13 5.82 13 13z"/><path d="m22.086 20.914 2.829-2.829-8.914-8.914-8.914 8.914 2.828 2.828 6.086-6.086z"/></symbol><symbol id="icon-search" viewBox="0 0 32 32"><path d="m31.008 27.231-7.58-6.447c-.784-.705-1.622-1.029-2.299-.998a11.954 11.954 0 0 0 2.87-7.787c0-6.627-5.373-12-12-12s-12 5.373-12 12 5.373 12 12 12c2.972 0 5.691-1.081 7.787-2.87-.031.677.293 1.515.998 2.299l6.447 7.58c1.104 1.226 2.907 1.33 4.007.23s.997-2.903-.23-4.007zM12 20a8 8 0 1 1 0-16 8 8 0 0 1 0 16z"/></symbol></defs></svg>